<svg width="200" height="200" viewBox="0 0 200 200" fill="none" xmlns="http://www.w3.org/2000/svg">
<rect width="200" height="200" fill="white"/>
<g clip-path="url(#clip0_179_288)">
<path d="M71.4488 154.268C88.8175 154.268 102.898 140.229 102.898 122.91C102.898 105.591 88.8175 91.5515 71.4488 91.5515C54.0801 91.5515 40 105.591 40 122.91C40 140.229 54.0801 154.268 71.4488 154.268Z" fill="#2F2E41"/>
<path d="M88.3528 126.307C88.3528 127.318 88.3135 128.314 88.2348 129.294C88.2244 129.453 88.2113 129.613 88.1955 129.772C87.1001 141.845 80.3491 151.227 72.0649 151.76H72.0623C71.9706 151.767 71.8788 151.773 71.7871 151.775C71.6299 151.783 71.4752 151.786 71.318 151.786C70.7637 151.787 70.2101 151.746 69.6617 151.666C69.6303 151.66 69.5988 151.655 69.5674 151.65C61.5138 150.422 55.1192 140.802 54.3618 128.727C54.3566 128.643 54.3514 128.56 54.3487 128.476C54.3042 127.76 54.2824 127.037 54.2832 126.307C54.2832 112.235 61.9096 100.828 71.318 100.828C80.7265 100.828 88.3528 112.235 88.3528 126.307Z" fill="#3F3D56"/>
<path d="M70.7928 116.508C82.6614 116.508 92.2828 106.914 92.2828 95.0794C92.2828 83.2449 82.6614 73.6511 70.7928 73.6511C58.9241 73.6511 49.3027 83.2449 49.3027 95.0794C49.3027 106.914 58.9241 116.508 70.7928 116.508Z" fill="#3F3D56"/>
<path d="M70.7931 113.895C73.2537 113.895 75.2484 113.427 75.2484 112.849C75.2484 112.272 73.2537 111.804 70.7931 111.804C68.3326 111.804 66.3379 112.272 66.3379 112.849C66.3379 113.427 68.3326 113.895 70.7931 113.895Z" fill="#2F2E41"/>
<path d="M63.979 102.135C64.9922 102.135 65.8136 101.316 65.8136 100.306C65.8136 99.2955 64.9922 98.4766 63.979 98.4766C62.9659 98.4766 62.1445 99.2955 62.1445 100.306C62.1445 101.316 62.9659 102.135 63.979 102.135Z" fill="#2F2E41"/>
<path d="M77.608 102.135C78.6211 102.135 79.4425 101.316 79.4425 100.306C79.4425 99.2955 78.6211 98.4766 77.608 98.4766C76.5948 98.4766 75.7734 99.2955 75.7734 100.306C75.7734 101.316 76.5948 102.135 77.608 102.135Z" fill="#2F2E41"/>
<path opacity="0.1" d="M71.0548 143.424C71.0564 144.615 70.9688 145.805 70.7928 146.983C70.5604 148.579 70.149 150.145 69.5663 151.65C61.5128 150.422 55.1182 140.803 54.3608 128.727C54.3555 128.643 54.3503 128.56 54.3477 128.476C55.9044 127.339 57.6629 126.699 59.5236 126.699C65.0507 126.699 69.6685 132.338 70.7928 139.867C70.9688 141.044 71.0564 142.233 71.0548 143.424V143.424Z" fill="black"/>
<path d="M71.0566 145.775C71.0582 146.967 70.9706 148.156 70.7945 149.335C69.9192 155.188 66.9316 159.902 63.045 161.706C62.3077 162.052 61.5237 162.29 60.7178 162.411C60.3232 162.471 59.9245 162.501 59.5254 162.5C58.3976 162.499 57.2822 162.265 56.2495 161.813C55.42 161.455 54.6447 160.983 53.9458 160.412C50.3974 157.564 47.9941 152.076 47.9941 145.776C47.9941 136.538 53.157 129.051 59.5254 129.051C65.0525 129.051 69.6703 134.69 70.7945 142.219C70.9706 143.396 71.0582 144.585 71.0566 145.775Z" fill="#3F3D56"/>
<path opacity="0.1" d="M88.2343 129.294C88.2238 129.454 88.2107 129.613 88.195 129.772C87.0995 141.845 80.3485 151.227 72.0644 151.76H72.0618C71.4577 150.221 71.0321 148.618 70.7933 146.983C70.4439 144.624 70.4439 142.226 70.7933 139.867C71.9176 132.338 76.5353 126.699 82.0625 126.699C84.332 126.699 86.4496 127.65 88.2343 129.294Z" fill="black"/>
<path d="M93.5937 145.776C93.5937 152.7 90.6926 158.64 86.5597 161.18C85.8677 161.611 85.12 161.945 84.3373 162.173C82.8682 162.604 81.3064 162.609 79.8349 162.186C78.9547 161.934 78.1179 161.55 77.353 161.047C74.0535 158.904 71.5769 154.577 70.7933 149.335C70.4439 146.976 70.4439 144.578 70.7933 142.219C71.9176 134.69 76.5353 129.051 82.0625 129.051C88.4309 129.051 93.5937 136.538 93.5937 145.776Z" fill="#3F3D56"/>
<path d="M70.7933 99.522C64.28 99.522 59 103.933 59 108.407C59 111.031 60.8174 113.362 63.6329 114.842C64.6809 112.919 67.4905 111.543 70.7933 111.543C74.0961 111.543 76.9057 112.919 77.9538 114.842C80.7693 113.362 82.5866 111.031 82.5866 108.407C82.5866 103.933 77.3066 99.522 70.7933 99.522Z" fill="#B6F2BC"/>
<path d="M70.2699 111.543C72.0068 111.543 73.4148 110.373 73.4148 108.929C73.4148 107.486 72.0068 106.316 70.2699 106.316C68.533 106.316 67.125 107.486 67.125 108.929C67.125 110.373 68.533 111.543 70.2699 111.543Z" fill="#3F3D56"/>
<path d="M49.4338 99.6525C51.8943 99.6525 53.889 95.8501 53.889 91.1596C53.889 86.4692 51.8943 82.6667 49.4338 82.6667C46.9732 82.6667 44.9785 86.4692 44.9785 91.1596C44.9785 95.8501 46.9732 99.6525 49.4338 99.6525Z" fill="#B6F2BC"/>
<path d="M90.842 99.6525C93.3025 99.6525 95.2972 95.8501 95.2972 91.1596C95.2972 86.4692 93.3025 82.6667 90.842 82.6667C88.3814 82.6667 86.3867 86.4692 86.3867 91.1596C86.3867 95.8501 88.3814 99.6525 90.842 99.6525Z" fill="#B6F2BC"/>
<path d="M75.641 70.9074C75.0487 70.907 74.4739 71.1077 74.0112 71.4764C73.6217 70.8398 73.0578 70.3274 72.3861 69.9995C71.7143 69.6716 70.9626 69.5419 70.2194 69.6256C69.4762 69.7093 68.7725 70.003 68.191 70.472C67.6096 70.9411 67.1746 71.566 66.9373 72.2732C66.6591 71.7626 66.2182 71.3591 65.6843 71.1263C65.1503 70.8935 64.5538 70.8448 63.989 70.9879C63.4242 71.131 62.9234 71.4577 62.5656 71.9164C62.2079 72.3751 62.0137 72.9396 62.0137 73.5206C62.0137 74.1017 62.2079 74.6662 62.5656 75.1249C62.9234 75.5836 63.4242 75.9103 63.989 76.0534C64.5538 76.1964 65.1503 76.1478 65.6843 75.915C66.2182 75.6822 66.6591 75.2786 66.9373 74.768C67.1746 75.4753 67.6096 76.1002 68.191 76.5692C68.7725 77.0383 69.4762 77.332 70.2194 77.4157C70.9626 77.4994 71.7143 77.3697 72.3861 77.0418C73.0578 76.7139 73.6217 76.2015 74.0112 75.5648C74.3386 75.8244 74.7236 76.002 75.134 76.0829C75.5444 76.1637 75.9682 76.1454 76.37 76.0295C76.7718 75.9135 77.14 75.7033 77.4436 75.4165C77.7473 75.1296 77.9777 74.7744 78.1155 74.3806C78.2533 73.9868 78.2946 73.5658 78.2358 73.1529C78.177 72.7399 78.0199 72.347 77.7777 72.0069C77.5354 71.6669 77.215 71.3896 76.8433 71.1984C76.4716 71.0071 76.0593 70.9073 75.641 70.9074V70.9074Z" fill="#3F3D56"/>
<path d="M56.2489 152.178V161.813C55.4195 161.455 54.6441 160.983 53.9453 160.412L56.2489 152.178Z" fill="#2F2E41"/>
<path d="M63.044 161.706C62.3067 162.052 61.5227 162.29 60.7168 162.411L61.9433 153.592L63.044 161.706Z" fill="#2F2E41"/>
<path d="M79.8353 152.178V162.186C78.9552 161.934 78.1184 161.549 77.3535 161.047L79.8353 152.178Z" fill="#2F2E41"/>
<path d="M86.5603 161.18C85.8683 161.611 85.1206 161.945 84.3379 162.173L85.5303 153.592L86.5603 161.18Z" fill="#2F2E41"/>
<path d="M64.4558 100.543C64.7776 100.543 65.0385 100.283 65.0385 99.9619C65.0385 99.641 64.7776 99.3809 64.4558 99.3809C64.134 99.3809 63.873 99.641 63.873 99.9619C63.873 100.283 64.134 100.543 64.4558 100.543Z" fill="white"/>
<path d="M78.1511 100.543C78.473 100.543 78.7339 100.283 78.7339 99.9619C78.7339 99.641 78.473 99.3809 78.1511 99.3809C77.8293 99.3809 77.5684 99.641 77.5684 99.9619C77.5684 100.283 77.8293 100.543 78.1511 100.543Z" fill="white"/>
<path d="M137.299 44.0334C121.448 44.0334 108.599 56.8461 108.599 72.6514C108.592 77.399 109.774 82.0731 112.04 86.249C110.095 87.0026 108.381 88.2479 107.066 89.8624C105.75 91.477 104.879 93.4051 104.537 95.4572C104.196 97.5093 104.396 99.6148 105.117 101.566C105.839 103.518 107.058 105.249 108.654 106.589C110.25 107.928 112.169 108.83 114.22 109.207C116.272 109.583 118.387 109.42 120.356 108.734C122.326 108.049 124.083 106.864 125.454 105.296C126.825 103.728 127.763 101.831 128.176 99.7921C131.117 100.773 134.198 101.272 137.299 101.269C153.15 101.269 166 88.4566 166 72.6514C166 56.8461 153.15 44.0334 137.299 44.0334Z" fill="#F2F2F2"/>
<path opacity="0.1" d="M136.725 87.8031C144.546 87.8031 150.887 86.7358 150.887 85.4192C150.887 84.1027 144.546 83.0354 136.725 83.0354C128.903 83.0354 122.562 84.1027 122.562 85.4192C122.562 86.7358 128.903 87.8031 136.725 87.8031Z" fill="black"/>
<path d="M127.286 61.5379C132.909 61.5379 137.468 56.9923 137.468 51.385C137.468 45.7778 132.909 41.2322 127.286 41.2322C121.662 41.2322 117.104 45.7778 117.104 51.385C117.104 56.9923 121.662 61.5379 127.286 61.5379Z" fill="#3F3D56"/>
<path d="M155.157 67.5626C155.163 80.798 147.274 85.4225 137.541 85.4272C137.315 85.4273 137.09 85.4249 136.866 85.42C136.415 85.4105 135.969 85.3902 135.527 85.3591C126.742 84.7432 119.914 79.8885 119.908 67.5797C119.902 54.8415 136.221 38.7583 137.445 37.5691C137.446 37.5691 137.446 37.5691 137.447 37.568C137.494 37.5227 137.518 37.5 137.518 37.5C137.518 37.5 155.15 54.3283 155.157 67.5626Z" fill="#B6F2BC"/>
<path d="M136.898 83.403L143.339 74.4195L136.882 84.3888L136.865 85.42C136.414 85.4105 135.968 85.3902 135.526 85.3591L136.214 72.118L136.209 72.0155L136.221 71.9961L136.286 70.7449L129.803 60.7571L136.305 69.8076L136.321 70.0729L136.841 60.0688L131.29 49.7472L136.908 58.3106L137.444 37.569L137.447 37.5L137.447 37.5679L137.364 53.9248L142.881 47.4377L137.341 55.3335L137.199 64.2913L142.351 55.6924L137.179 65.6082L137.1 70.5892L144.578 58.6197L137.072 72.3268L136.898 83.403Z" fill="#3F3D56"/>
</g>
<defs>
<clipPath id="clip0_179_288">
<rect width="126" height="125" fill="white" transform="translate(40 37.5)"/>
</clipPath>
</defs>
</svg>
