<svg width="200" height="200" viewBox="0 0 200 200" fill="none" xmlns="http://www.w3.org/2000/svg">
<g clip-path="url(#clip0_179_286)">
<rect width="200" height="200" fill="white"/>
<path d="M170 102.153C170 141.726 144.793 139.173 103.371 139.173C94.163 139.173 76.975 172.219 68.8275 169.32H68.825C68.525 169.215 68.2275 169.105 67.93 168.993C67.845 168.964 67.76 168.933 67.6775 168.899C67.21 168.727 66.745 168.548 66.2825 168.364C65.33 167.987 64.3875 167.591 63.4575 167.18C62.975 166.965 62.495 166.747 62.02 166.523C57.61 164.457 53.4425 161.987 49.57 159.167C47.62 157.748 45.7425 156.236 43.95 154.645C42.465 153.327 41.0375 151.954 39.6725 150.525C39.2425 150.079 38.8225 149.627 38.4075 149.171C38.2375 148.987 38.0725 148.803 37.91 148.619C36.7325 147.303 35.6075 145.944 34.5325 144.547C34.185 144.096 33.8425 143.639 33.505 143.179C31.2125 140.05 29.175 136.735 27.42 133.267C22.665 123.856 20 113.302 20 102.153C20 62.5789 53.5775 30.5 95 30.5C136.423 30.5 170 62.5789 170 102.153Z" fill="#F2F2F2"/>
<path d="M68.3551 101.042C69.8144 99.0679 69.9244 96.7524 68.601 95.8707C67.2776 94.989 65.0223 95.875 63.5627 97.8504C62.9683 98.6319 62.5796 99.5372 62.4292 100.491L56.3574 108.931L60.589 111.552L66.1255 102.953C67.0187 102.495 67.7833 101.839 68.3551 101.042V101.042Z" fill="#AAE2AF"/>
<path d="M31.6113 111.484C35.6468 119.679 42.7827 132.85 47.6011 134.276C49.2619 134.768 50.9418 133.625 52.5384 131.589C57.1616 125.703 61.0948 112.349 61.8919 109.527C61.9895 109.184 62.0394 108.996 62.0394 108.996L58.0349 106.597L57.6875 106.389L51.6152 114.317L49.7449 116.758C49.7449 116.758 49.833 115.542 50.04 113.585L40.4652 109.132C40.4652 109.132 35.2067 109.963 31.6113 111.484V111.484Z" fill="#AAE2AF"/>
<path d="M51.8858 109.81C57.5365 109.81 62.1174 105.46 62.1174 100.094C62.1174 94.7279 57.5365 90.3779 51.8858 90.3779C46.2351 90.3779 41.6543 94.7279 41.6543 100.094C41.6543 105.46 46.2351 109.81 51.8858 109.81Z" fill="#FFB6B6"/>
<path d="M46.2718 162.768H38.5954C38.0232 162.205 37.4586 161.634 36.904 161.057C36.3318 160.466 35.7748 159.87 35.2227 159.267C40.2416 158.283 44.3872 157.599 44.3872 157.599C44.3872 157.599 44.5002 157.921 44.7109 158.5C45.0296 159.391 45.5692 160.885 46.2718 162.768V162.768Z" fill="#2F2E41"/>
<path d="M55.0968 108.793L51.0228 115.599L39.3926 111.504L43.9135 102.918L55.0968 108.793Z" fill="#FFB6B6"/>
<path d="M62.2344 99.7548L64.3759 99.5288L64.8517 98.1731H67.1159L67.2312 98.851L70.8003 99.5288L70.0837 109.259L68.4209 110.826L63.9 110.375L63.4241 102.692H62.2344V99.7548Z" fill="#2F2E41"/>
<path d="M69.6123 102.466L89.5994 101.788L90.0753 110.6L68.8984 109.471L69.6123 102.466Z" fill="#2F2E41"/>
<path d="M55.8088 99.077L56.5226 102.24L57.807 99.077L59.4329 97.6813L60.0918 95.2359C60.0918 95.2359 64.1368 98.8511 63.6609 96.1397C63.185 93.4282 62.7091 91.1687 60.3297 90.9428C57.9503 90.7168 56.2847 91.263 55.095 90.764C53.9053 90.2649 53.9053 86.6497 51.7638 88.0054C49.6223 89.3611 49.1464 90.2649 47.4808 90.4909C45.8152 90.7168 39.8667 88.6832 40.1046 93.4282C40.3425 98.1732 42.484 99.529 41.7702 102.918C41.0564 106.308 47.7188 106.759 47.7188 106.759C47.7188 106.759 50.0982 106.759 50.0982 103.596C50.0982 100.433 55.8088 99.077 55.8088 99.077H55.8088Z" fill="#2F2E41"/>
<path d="M52.7234 139.257V139.259L48.5577 144.657L48.4975 147.755L48.3143 157.034L44.7107 158.5L43.4409 162.768H37.6918C37.3881 162.437 37.3329 162.522 37.3806 162.768H16C16.8181 160.056 18.2761 153.946 19.6964 147.755C21.6714 139.143 23.5685 130.371 23.5685 130.371C23.5685 130.371 26.6627 114.328 29.9928 112.296C30.4645 112.005 31.0141 111.738 31.6088 111.486C32.5072 111.104 33.511 110.768 34.5073 110.475C35.0217 110.325 35.5336 110.187 36.033 110.06C36.3643 109.977 36.6905 109.898 37.0017 109.825C37.1598 109.789 37.3128 109.753 37.4634 109.72C37.7646 109.651 38.0531 109.589 38.3216 109.534C38.4195 109.512 38.5149 109.493 38.6077 109.474C38.678 109.46 38.7458 109.448 38.8135 109.434C38.8913 109.417 38.9666 109.403 39.0394 109.388C39.1121 109.374 39.1849 109.36 39.2526 109.348C39.3305 109.334 39.4057 109.319 39.4785 109.305C39.5513 109.291 39.619 109.279 39.6843 109.267C39.7495 109.255 39.8123 109.243 39.87 109.234C39.9277 109.224 39.9804 109.215 40.0306 109.205C40.1059 109.191 40.1737 109.179 40.2289 109.169C40.2665 109.164 40.2991 109.157 40.3292 109.153C40.4171 109.138 40.4622 109.131 40.4622 109.131L40.6028 109.198H40.6053L50.0383 113.587L51.6092 114.319H51.6117L51.7498 114.381L52.1212 114.555L52.1513 115.832L52.5352 131.589L52.7234 139.257L52.7234 139.257Z" fill="#B6F2BC"/>
<path d="M71.3567 108.893C71.1061 106.492 69.5986 104.669 67.9899 104.821C66.3812 104.973 65.2807 107.042 65.5318 109.443C65.6182 110.403 65.9457 111.33 66.4867 112.146L67.6841 122.304L72.6919 121.669L70.9799 111.722C71.3417 110.821 71.4709 109.851 71.3567 108.893V108.893Z" fill="#FFB6B6"/>
<path d="M50.0995 116.475C50.0995 116.475 57.4757 113.086 60.331 119.639C63.1863 126.191 66.3391 131.756 66.3391 131.756L67.2313 118.961H72.3771C72.3771 118.961 81.5079 145.849 74.3696 147.657C67.2313 149.464 41.7715 132.518 41.7715 132.518L50.0995 116.475V116.475Z" fill="#B6F2BC"/>
<path d="M145.049 119.521C145.753 122.706 156.726 120.981 156.726 120.981L161.509 120.45C161.509 120.45 159.258 121.644 161.228 123.105C163.198 124.565 169.81 121.512 169.81 121.512C172.028 122.209 174.747 122.207 177.101 121.983C180.494 121.661 183.214 119.19 183.68 116.002C186.31 98.0246 171.85 89.1897 171.85 89.1897L167.629 78.4378C167.629 78.4378 168.966 75.3184 169.388 72.5309C169.81 69.7434 166.715 67.0886 162.916 64.4338C159.118 61.779 154.053 65.6285 154.053 65.6285C154.053 65.6285 151.026 63.2192 148.153 63.6692C147.521 63.7674 146.898 64.0037 146.316 64.4338C145.713 64.8785 145.448 65.6205 145.439 66.543C145.394 70.573 150.258 78.013 153.35 78.7696C157.148 79.6988 154.335 92.1763 154.335 92.1763C148.144 100.406 152.506 109.565 152.506 109.565L151.38 116.999C151.38 116.999 144.346 116.335 145.049 119.521V119.521Z" fill="#3F3D56"/>
<path d="M173 104.686L171.28 122.745C171.28 122.745 173.625 127.754 165.653 127.49C157.681 127.226 162.37 116.945 162.37 116.945L164.871 103.5" fill="#3F3D56"/>
<path d="M166.269 127.5C166.079 127.5 165.885 127.497 165.685 127.49C163.966 127.432 162.7 126.89 161.922 125.879C159.699 122.987 162.172 117.286 162.345 116.895L164.779 103.61C164.792 103.539 164.87 103.491 164.953 103.501C165.036 103.513 165.093 103.579 165.08 103.651L162.644 116.949C162.642 116.958 162.639 116.967 162.636 116.976C162.609 117.035 160.009 122.916 162.177 125.736C162.898 126.673 164.082 127.175 165.697 127.229C168.233 127.314 169.938 126.851 170.767 125.852C171.852 124.544 171.039 122.732 171.031 122.714C171.023 122.695 171.019 122.675 171.021 122.656L172.696 104.793C172.703 104.722 172.775 104.669 172.86 104.674C172.944 104.68 173.006 104.742 173 104.814L171.327 122.647C171.438 122.903 172.132 124.656 171.017 126.001C170.192 126.997 168.596 127.5 166.269 127.5V127.5Z" fill="#2F2E41"/>
<path d="M159.997 108.5C159.997 108.5 160.432 124.88 151.298 124.493C142.164 124.106 150.428 118.947 150.428 118.947L151.225 116.948" fill="#3F3D56"/>
<path d="M151.652 124.5C151.548 124.5 151.444 124.498 151.338 124.493C148.788 124.385 147.346 123.873 147.055 122.973C146.529 121.351 149.953 119.099 150.376 118.828L151.141 116.899C151.167 116.832 151.248 116.798 151.322 116.821C151.395 116.845 151.434 116.917 151.408 116.983L150.628 118.951C150.618 118.976 150.6 118.997 150.576 119.012C150.538 119.036 146.835 121.384 147.327 122.902C147.581 123.687 148.935 124.137 151.352 124.24C152.961 124.309 154.372 123.825 155.543 122.802C159.932 118.966 159.715 108.733 159.712 108.63C159.71 108.56 159.772 108.502 159.85 108.5C159.924 108.5 159.994 108.554 159.995 108.624C160.007 109.049 160.218 119.07 155.741 122.983C154.588 123.99 153.214 124.5 151.652 124.5V124.5Z" fill="#2F2E41"/>
<path d="M145 66.4461C145.902 66.5631 147.315 66.5577 148.485 65.7126C149.738 64.8077 148.437 63.964 147.424 63.5C146.86 63.6007 146.303 63.8429 145.783 64.2838C145.245 64.7397 145.008 65.5004 145 66.4461Z" fill="#2F2E41"/>
<path d="M162.964 71.9925C162.964 71.9925 162.585 65.6698 165.617 66.5919C168.649 67.5139 169.533 73.178 169.533 73.178C169.533 73.178 172.691 90.0386 162.585 85.8235C152.479 81.6083 159.174 77.5249 159.174 77.5249C159.174 77.5249 162.459 75.2856 162.964 71.9925Z" fill="#2F2E41"/>
<path d="M174.527 114.528C176.085 115.172 177.713 115.829 179.416 115.766C181.12 115.703 182.913 114.684 183.178 113.119C183.315 112.311 183.044 111.444 183.377 110.687C183.824 109.668 185.269 109.276 186.392 109.625C187.515 109.974 188.341 110.874 188.932 111.827C190.039 113.611 190.482 115.951 189.296 117.69C188.267 119.197 186.316 119.878 184.501 120.462C182.083 121.24 179.384 122.012 177.041 121.056C174.685 120.095 173.402 117.318 174.275 115.069" fill="#3F3D56"/>
<path d="M170.084 86.5C170.084 86.5 173.078 87.8644 171.581 89.3528C170.084 90.8412 160.831 95.0584 157.428 94.4382C154.026 93.818 153.21 91.9575 153.21 91.4614C153.21 90.9652 152.53 89.2288 153.618 89.4768C154.707 89.7249 162.463 91.0893 170.084 86.5Z" fill="#B6F2BC"/>
</g>
<defs>
<clipPath id="clip0_179_286">
<rect width="200" height="200" fill="white"/>
</clipPath>
</defs>
</svg>
