<svg width="200" height="200" viewBox="0 0 200 200" fill="none" xmlns="http://www.w3.org/2000/svg">
<rect width="200" height="200" fill="white"/>
<g clip-path="url(#clip0_179_287)">
<path d="M171 100C171.011 109.121 169.26 118.158 165.843 126.614C165.835 126.633 165.828 126.65 165.82 126.669V126.671C163.523 132.334 160.502 137.675 156.832 142.56C156.124 143.505 155.393 144.431 154.641 145.337C154.365 145.669 154.086 145.999 153.807 146.324C152.368 147.994 150.854 149.594 149.265 151.124C148.896 151.481 148.522 151.834 148.144 152.183C148.055 152.265 147.967 152.345 147.879 152.427C146.028 154.117 144.09 155.709 142.071 157.195C140.716 158.197 139.325 159.148 137.899 160.05C137.586 160.249 137.271 160.445 136.954 160.638C136.403 160.974 135.848 161.302 135.288 161.623C134.557 162.043 133.817 162.45 133.068 162.843C132.765 163.005 132.461 163.161 132.156 163.316C131.711 163.545 131.263 163.766 130.812 163.982C130.734 164.02 130.656 164.058 130.578 164.093C130.284 164.236 129.986 164.375 129.688 164.513C125.803 166.305 121.763 167.739 117.618 168.796C117.595 168.803 117.574 168.807 117.551 168.813C117.28 168.883 117.006 168.95 116.733 169.015C116.53 169.065 116.324 169.114 116.118 169.16C116.093 169.168 116.067 169.174 116.04 169.179C115.618 169.278 115.196 169.372 114.769 169.458C114.53 169.509 114.29 169.559 114.051 169.607C113.906 169.639 113.759 169.666 113.614 169.693C113.431 169.729 113.251 169.763 113.068 169.798C112.967 169.819 112.866 169.836 112.763 169.853C112.532 169.895 112.301 169.937 112.072 169.977C111.681 170.044 111.287 170.109 110.894 170.168C110.608 170.212 110.324 170.254 110.039 170.294C109.703 170.343 109.367 170.387 109.028 170.429C108.936 170.443 108.844 170.454 108.751 170.464C108.631 170.479 108.512 170.494 108.392 170.508C108.15 170.538 107.909 170.565 107.665 170.59C107.539 170.605 107.415 170.618 107.289 170.63C107.05 170.655 106.81 170.679 106.571 170.7C106.262 170.729 105.953 170.754 105.642 170.779C105.264 170.809 104.888 170.836 104.508 170.859C104.264 170.874 104.021 170.889 103.775 170.901C103.149 170.935 102.523 170.958 101.893 170.975C101.58 170.983 101.265 170.989 100.95 170.994H100.943C100.63 170.998 100.315 171 100 171C96.807 171.001 93.6174 170.788 90.4529 170.361C88.1317 170.051 85.8477 169.629 83.6008 169.097C83.5104 169.076 83.4201 169.055 83.3319 169.032C83.105 168.979 82.8803 168.923 82.6555 168.866C82.4559 168.815 82.2585 168.763 82.0589 168.71C76.9159 167.372 71.9409 165.456 67.2288 162.999C67.2057 162.986 67.1804 162.974 67.1573 162.961C67.0208 162.89 66.8864 162.82 66.7519 162.747C66.4557 162.591 66.161 162.433 65.8676 162.272C64.1976 161.354 62.5703 160.372 60.9858 159.327C60.5783 159.06 60.175 158.789 59.7759 158.514C59.6477 158.426 59.5217 158.338 59.3957 158.249C59.2633 158.157 59.131 158.065 59.0007 157.972C58.6541 157.726 58.3096 157.478 57.9673 157.226C56.5494 156.185 55.1735 155.092 53.8396 153.947C49.1117 149.898 44.9339 145.248 41.4125 140.115C40.1836 138.325 39.0367 136.478 37.9717 134.574C32.0697 124.008 28.9805 112.103 29.0001 100C29.0001 60.7883 60.7884 29 100 29C139.212 29 171 60.7883 171 100Z" fill="#B6F2BC"/>
<path opacity="0.2" d="M111.416 169.032C111.643 168.979 111.868 168.923 112.092 168.866C112.292 168.815 112.489 168.763 112.689 168.71C112.699 168.292 112.714 167.832 112.729 167.334C112.853 163.436 113.145 157.159 113.834 149.597C113.872 149.192 113.909 148.783 113.947 148.372C114.193 145.81 114.481 143.115 114.825 140.321C114.836 140.228 114.848 140.138 114.859 140.046C115.138 137.781 115.455 135.456 115.813 133.086C116.063 131.429 116.333 129.753 116.623 128.06C116.644 127.942 116.665 127.822 116.686 127.705C116.77 127.215 116.857 126.728 116.945 126.236C117.191 124.869 117.453 123.493 117.728 122.117C118.697 117.277 119.85 112.408 121.226 107.671C122.623 102.759 124.345 97.9443 126.379 93.2592C127.956 89.6197 129.835 86.1184 131.996 82.7919C132.027 82.7436 132.059 82.6974 132.09 82.6491C134.852 78.4878 138.01 74.9567 141.614 72.3163L140.866 71.2954C137.413 73.8266 134.245 77.1946 131.363 81.3993C131.349 81.4203 131.336 81.4392 131.321 81.4602C129.154 84.6739 127.262 88.0652 125.666 91.5976C123.529 96.3227 121.727 101.192 120.272 106.169C118.894 110.795 117.658 115.806 116.565 121.203C116.18 123.104 115.813 125.052 115.464 127.047C115.405 127.388 115.346 127.728 115.287 128.07C115.287 128.074 115.285 128.081 115.285 128.085C115.195 128.61 115.109 129.135 115.021 129.667C114.802 131.005 114.596 132.332 114.403 133.649C114.105 135.679 113.835 137.673 113.594 139.632C113.515 140.279 113.438 140.921 113.363 141.558C113.258 142.457 113.159 143.344 113.065 144.22C112.933 145.438 112.812 146.63 112.702 147.797L112.67 148.118C112.653 148.303 112.636 148.488 112.62 148.671C111.767 157.869 111.5 165.299 111.416 169.032Z" fill="black"/>
<path opacity="0.2" d="M127.52 162.999C127.543 162.986 127.568 162.974 127.591 162.961C128.024 162.736 128.452 162.507 128.881 162.272C129.021 160.596 129.211 158.753 129.458 156.817C129.511 156.418 129.563 156.012 129.622 155.605C129.652 155.386 129.683 155.166 129.715 154.943C129.963 153.237 130.257 151.477 130.609 149.708C132.044 142.491 134.426 135.113 138.382 130.559C138.594 130.314 138.81 130.078 139.035 129.849C139.592 129.271 140.197 128.74 140.844 128.263L140.096 127.245C139.193 127.912 138.363 128.672 137.617 129.511C137.355 129.803 137.098 130.107 136.848 130.423C133.208 135.004 130.935 141.787 129.519 148.503C129.15 150.255 128.839 152.004 128.574 153.708C128.507 154.153 128.442 154.594 128.381 155.031C127.971 157.917 127.7 160.644 127.52 162.999Z" fill="black"/>
<path opacity="0.2" d="M148.678 72.287C152.168 72.287 154.998 69.4573 154.998 65.9666C154.998 62.476 152.168 59.6462 148.678 59.6462C145.187 59.6462 142.357 62.476 142.357 65.9666C142.357 69.4573 145.187 72.287 148.678 72.287Z" fill="black"/>
<path opacity="0.2" d="M146.643 126.694C150.133 126.694 152.963 123.865 152.963 120.374C152.963 116.883 150.133 114.053 146.643 114.053C143.152 114.053 140.322 116.883 140.322 120.374C140.322 123.865 143.152 126.694 146.643 126.694Z" fill="black"/>
<path opacity="0.2" d="M123.587 76.5828C124.928 84.1444 121.969 90.9913 121.969 90.9913C121.969 90.9913 116.837 85.5784 115.497 78.0168C114.157 70.4553 117.115 63.6084 117.115 63.6084C117.115 63.6084 122.247 69.0213 123.587 76.5828Z" fill="black"/>
<path opacity="0.2" d="M144.593 94.5324C137.38 97.1697 130.133 95.4773 130.133 95.4773C130.133 95.4773 134.579 89.5089 141.791 86.8716C149.004 84.2343 156.251 85.9268 156.251 85.9268C156.251 85.9268 151.805 91.8951 144.593 94.5324Z" fill="black"/>
<path opacity="0.2" d="M145.814 142.712C140.759 144.56 135.672 143.355 135.672 143.355C135.672 143.355 138.781 139.152 143.836 137.303C148.892 135.454 153.979 136.66 153.979 136.66C153.979 136.66 150.869 140.863 145.814 142.712Z" fill="black"/>
<path d="M121.418 141.648L121.674 141.781C121.649 142.054 121.588 142.222 121.418 141.648Z" fill="#2F2E41"/>
<path d="M121.756 141.737C121.758 141.766 121.762 141.797 121.764 141.827L121.674 141.781C121.676 141.753 121.678 141.724 121.682 141.695C121.703 141.327 121.678 140.892 121.756 141.737Z" fill="#2F2E41"/>
<path d="M94.4721 131.687C113.522 131.687 128.966 116.244 128.966 97.1938C128.966 78.1435 113.522 62.7002 94.4721 62.7002C75.4218 62.7002 59.9785 78.1435 59.9785 97.1938C59.9785 116.244 75.4218 131.687 94.4721 131.687Z" fill="#2F2E41"/>
<path d="M97.3111 130.282C108.848 130.282 118.2 120.929 118.2 109.392C118.2 97.8556 108.848 88.5032 97.3111 88.5032C85.7743 88.5032 76.4219 97.8556 76.4219 109.392C76.4219 120.929 85.7743 130.282 97.3111 130.282Z" fill="#D0CDE1"/>
<path d="M145.009 149.429L144.984 149.435L140.125 150.601L130.009 153.029L128.629 153.361L113.244 157.052L111.937 157.367L74.6119 166.324C72.0887 165.359 69.6234 164.249 67.2283 162.999C67.2052 162.986 67.18 162.974 67.1569 162.961C67.0203 162.889 66.8859 162.82 66.7515 162.747C66.4553 162.591 66.1605 162.433 65.8671 162.272C64.1972 161.354 62.5699 160.372 60.9853 159.327C60.5778 159.06 60.1745 158.789 59.7754 158.514C59.6473 158.426 59.5212 158.338 59.3952 158.249C59.2629 158.157 59.1305 158.064 59.0003 157.972C58.6537 157.726 58.3092 157.478 57.9668 157.226C61.5924 150.637 70.2258 146.257 78.8593 143.86C85.3753 142.05 86.8079 136.099 86.684 130.803C86.6525 129.595 86.5501 128.39 86.3773 127.194C86.1141 125.291 85.6954 123.412 85.1253 121.577L106.016 122.275L108.171 127.24C108.112 127.786 108.093 128.335 108.114 128.883C108.278 132.956 110.792 135.59 113.895 137.29C114.298 137.51 114.712 137.716 115.132 137.907C120.22 140.22 126.209 140.377 126.209 140.377C128.032 140.176 129.874 140.21 131.689 140.48C132.13 140.548 132.559 140.628 132.975 140.722C135.403 141.265 137.697 142.291 139.72 143.74C140.492 144.29 141.223 144.896 141.906 145.553C143.121 146.69 144.166 147.995 145.009 149.429Z" fill="#D0CDE1"/>
<path d="M148.143 152.183C148.055 152.265 147.967 152.345 147.878 152.427C146.028 154.118 144.089 155.709 142.07 157.195C140.715 158.197 139.325 159.149 137.899 160.05C137.586 160.249 137.27 160.445 136.953 160.638C136.403 160.974 135.848 161.302 135.288 161.623C134.557 162.043 133.816 162.45 133.067 162.843C132.765 163.005 132.46 163.161 132.156 163.316C131.71 163.545 131.263 163.766 130.811 163.982C130.733 164.02 130.656 164.058 130.578 164.093L129.689 163.356L140.125 150.601L142.224 148.036C142.224 148.036 143.062 148.036 144.984 149.435C146.046 150.226 147.05 151.092 147.988 152.028C148.038 152.08 148.091 152.13 148.143 152.183Z" fill="#D0CDE1"/>
<path d="M147.997 152.04C147.968 152.172 147.929 152.301 147.879 152.426C146.028 154.117 144.09 155.709 142.071 157.195C140.319 157.826 138.502 158.258 136.653 158.482C136.653 158.482 136.811 159.272 136.954 160.638C136.403 160.974 135.848 161.302 135.288 161.623C134.557 162.043 133.817 162.45 133.068 162.843C132.765 163.005 132.461 163.16 132.156 163.316C131.711 163.545 131.263 163.765 130.812 163.982C130.734 164.02 130.656 164.057 130.578 164.093C130.284 164.236 129.986 164.375 129.688 164.513C125.803 166.305 121.763 167.739 117.618 168.796C117.595 168.803 117.574 168.807 117.551 168.813C117.28 168.882 117.007 168.95 116.733 169.015C116.53 169.065 116.324 169.114 116.118 169.16C116.093 169.168 116.067 169.174 116.04 169.179C115.618 169.277 115.196 169.372 114.769 169.458C114.53 169.508 114.29 169.559 114.051 169.607C113.906 169.639 113.759 169.666 113.614 169.693C113.431 169.729 113.251 169.763 113.068 169.798C112.967 169.819 112.866 169.836 112.763 169.853C112.532 169.895 112.301 169.937 112.072 169.977C111.682 170.044 111.287 170.109 110.894 170.168C110.608 170.212 110.325 170.254 110.039 170.294C109.703 170.342 109.367 170.387 109.028 170.429C108.936 170.443 108.844 170.454 108.751 170.464C108.631 170.479 108.512 170.494 108.392 170.508C108.15 170.538 107.909 170.565 107.665 170.59C107.539 170.605 107.415 170.618 107.289 170.63C107.05 170.655 106.81 170.678 106.571 170.7C106.262 170.729 105.953 170.754 105.642 170.779C105.264 170.809 104.888 170.836 104.508 170.859C104.264 170.874 104.021 170.889 103.775 170.901C103.149 170.935 102.523 170.958 101.893 170.975C101.58 170.983 101.265 170.989 100.95 170.994H100.943C100.63 170.998 100.315 171 100 171C96.807 171.001 93.6174 170.788 90.4529 170.361C88.1318 170.05 85.8477 169.629 83.6008 169.097C83.5105 169.076 83.4202 169.055 83.3319 169.032C83.1051 168.979 82.8803 168.922 82.6555 168.866C82.456 168.815 82.2585 168.763 82.059 168.71C76.916 167.372 71.9409 165.456 67.2288 162.999C67.2057 162.986 67.1805 162.974 67.1574 162.961C67.0208 162.889 66.8864 162.82 66.752 162.747C78.2821 160.06 96.5026 155.823 112.314 152.193C112.757 152.092 113.197 151.992 113.635 151.891C119.475 150.551 124.945 149.303 129.572 148.259C130.051 148.152 130.52 148.047 130.98 147.944C135.952 146.826 139.813 145.978 141.907 145.553C142.471 145.424 143.042 145.324 143.617 145.253L147.988 152.027L147.997 152.04Z" fill="#2F2E41"/>
<path d="M62.9134 82.5157C68.5879 82.5157 73.1881 77.9156 73.1881 72.241C73.1881 66.5664 68.5879 61.9663 62.9134 61.9663C57.2388 61.9663 52.6387 66.5664 52.6387 72.241C52.6387 77.9156 57.2388 82.5157 62.9134 82.5157Z" fill="#2F2E41"/>
<path d="M126.031 79.5801C131.705 79.5801 136.305 74.98 136.305 69.3055C136.305 63.6309 131.705 59.0308 126.031 59.0308C120.356 59.0308 115.756 63.6309 115.756 69.3055C115.756 74.98 120.356 79.5801 126.031 79.5801Z" fill="#2F2E41"/>
<path d="M115.021 64.9019C115.022 62.3678 115.958 59.9231 117.652 58.0378C119.345 56.1525 121.676 54.9594 124.195 54.688C122.76 54.5312 121.308 54.6786 119.934 55.1204C118.56 55.5622 117.295 56.2887 116.22 57.2523C115.145 58.2159 114.286 59.3952 113.697 60.7132C113.109 62.0313 112.805 63.4585 112.805 64.9019C112.805 66.3453 113.109 67.7725 113.697 69.0906C114.286 70.4086 115.145 71.5879 116.22 72.5515C117.295 73.5152 118.56 74.2416 119.934 74.6834C121.308 75.1252 122.76 75.2726 124.195 75.1159C121.676 74.8444 119.345 73.6514 117.652 71.766C115.958 69.8807 115.022 67.4361 115.021 64.9019V64.9019Z" fill="#2F2E41"/>
<path d="M51.433 80.552C49.6597 78.7416 48.618 76.3398 48.508 73.808C48.3981 71.2763 49.2276 68.7932 50.8373 66.8359C49.7027 67.7282 48.7689 68.8495 48.0966 70.1268C47.4243 71.4041 47.0287 72.8087 46.9355 74.2491C46.8423 75.6895 47.0537 77.1334 47.5558 78.4867C48.0579 79.8399 48.8395 81.0722 49.8497 82.1032C50.8599 83.1342 52.076 83.9408 53.4187 84.4704C54.7615 85.0001 56.2008 85.2408 57.6428 85.177C59.0848 85.1133 60.4972 84.7464 61.7879 84.1003C63.0786 83.4542 64.2188 82.5434 65.134 81.4272C63.1443 82.9966 60.6448 83.7754 58.1158 83.6138C55.5868 83.4523 53.2068 82.3618 51.433 80.552V80.552Z" fill="#2F2E41"/>
<path d="M94.4723 81.0479C82.3125 81.0479 72.4551 86.798 72.4551 93.8912C72.4551 97.065 74.4365 99.9657 77.7072 102.207L81.9457 99.1354L80.7931 103.947C81.2714 104.168 81.7597 104.383 82.2691 104.581L88.601 97.1938V106.269C90.5426 106.58 92.5059 106.736 94.4723 106.735C106.632 106.735 116.489 100.984 116.489 93.8912C116.489 86.798 106.632 81.0479 94.4723 81.0479Z" fill="#2F2E41"/>
<path d="M115.756 69.3054C115.756 69.3054 114.16 76.6445 124.132 79.5801L115.756 69.3054Z" fill="#2F2E41"/>
<path d="M72.4543 70.6411C72.4543 70.6411 76.1238 78.8461 65.1152 82.5157L72.4543 70.6411Z" fill="#2F2E41"/>
<path d="M77.8957 117.593C78.8215 117.334 79.0677 115.323 78.4457 113.101C77.8237 110.879 76.5689 109.288 75.6431 109.547C74.7173 109.806 74.471 111.818 75.0931 114.04C75.7151 116.261 76.9699 117.853 77.8957 117.593Z" fill="#D0CDE1"/>
<path d="M120.286 110.196C120.428 107.893 119.765 105.978 118.806 105.919C117.846 105.86 116.953 107.679 116.812 109.982C116.67 112.285 117.333 114.2 118.292 114.259C119.252 114.318 120.145 112.499 120.286 110.196Z" fill="#D0CDE1"/>
</g>
<defs>
<clipPath id="clip0_179_287">
<rect width="142" height="142" fill="white" transform="translate(29 29)"/>
</clipPath>
</defs>
</svg>
