<svg xmlns="http://www.w3.org/2000/svg" xmlns:xlink="http://www.w3.org/1999/xlink" version="1.1" width="1000" height="1000" viewBox="0 0 1000 1000" xml:space="preserve">
<desc>Created with Fabric.js 3.5.0</desc>
<defs>
</defs>
<rect x="0" y="0" width="100%" height="100%" fill="none"/>
<g transform="matrix(-2.2901 0 0 2.3604 498.6476 485.5017)" id="917577">
<g style="" vector-effect="non-scaling-stroke">
		<g transform="matrix(0.1333 0 0 -0.1333 -112.1105 -84.7351)">
<path style="stroke: none; stroke-width: 1; stroke-dasharray: none; stroke-linecap: butt; stroke-dashoffset: 0; stroke-linejoin: miter; stroke-miterlimit: 4; is-custom-font: none; font-file-url: none; fill: rgb(0,0,0); fill-rule: nonzero; opacity: 1;" transform=" translate(-879.3511, -2355.3795)" d="M 175 2877 c -31 -24 -12 -58 59 -105 c 59 -39 65 -46 76 -93 c 13 -55 45 -83 107 -95 c 28 -5 38 -17 83 -99 c 56 -100 79 -119 163 -131 c 67 -10 87 -27 80 -69 c -16 -98 95 -215 205 -215 c 17 0 20 -6 19 -47 c -1 -79 21 -107 125 -159 c 81 -41 98 -46 142 -42 c 31 3 65 14 86 28 c 32 21 253 289 274 332 c 14 28 -9 109 -57 203 c -46 88 -146 202 -211 240 c -101 58 -601 204 -840 245 c -138 23 -283 27 -311 7 z" stroke-linecap="round"/>
</g>
		<g transform="matrix(0.1333 0 0 -0.1333 13.1844 26.6108)">
<path style="stroke: none; stroke-width: 1; stroke-dasharray: none; stroke-linecap: butt; stroke-dashoffset: 0; stroke-linejoin: miter; stroke-miterlimit: 4; is-custom-font: none; font-file-url: none; fill: rgb(0,0,0); fill-rule: nonzero; opacity: 1;" transform=" translate(-1819.2551, -1520.0916)" d="M 3150 2769 c -141 -83 -190 -104 -322 -138 c -179 -48 -386 -79 -701 -106 c -215 -18 -267 -39 -323 -127 c -13 -20 -81 -110 -152 -200 c -70 -90 -162 -208 -204 -264 c -117 -155 -156 -180 -274 -172 c -52 3 -71 10 -106 36 c -100 75 -133 87 -248 87 c -94 0 -111 -3 -155 -26 c -65 -33 -117 -103 -146 -193 c -23 -75 -39 -93 -104 -127 c -59 -31 -85 -59 -85 -90 c 0 -15 5 -31 10 -34 c 6 -4 59 -13 118 -21 c 169 -24 193 -39 413 -249 c 139 -133 192 -166 309 -191 c 104 -22 315 -22 399 0 c 85 22 173 70 217 119 c 36 39 36 39 78 27 c 59 -17 158 -73 243 -137 c 144 -108 258 -291 343 -552 c 58 -178 69 -203 89 -199 c 24 5 32 57 21 149 c -12 106 -42 224 -69 278 c -34 66 -52 148 -39 176 c 6 14 19 27 29 30 c 46 15 195 -53 292 -133 c 70 -57 146 -146 230 -266 c 118 -170 151 -194 221 -161 c 41 20 41 19 -6 151 c -45 126 -117 235 -232 350 c -247 248 -624 417 -1181 529 c -191 38 -236 52 -292 89 c -41 28 -69 60 -96 113 c -22 41 -21 54 1 28 c 63 -75 206 -151 329 -175 c 76 -15 263 -8 318 11 c 26 9 49 28 70 57 c 16 24 55 72 86 105 c 74 81 81 97 78 170 l -3 62 l 40 22 c 21 12 64 28 94 34 c 73 15 107 33 124 67 c 12 24 30 33 107 57 c 109 33 151 66 173 133 c 12 34 25 53 49 67 c 17 10 53 39 80 64 c 37 34 51 57 63 100 c 21 70 26 76 90 107 c 58 27 94 68 129 149 c 28 63 61 215 52 239 c -11 28 -50 17 -157 -45 z" stroke-linecap="round"/>
</g>
</g>
</g>
</svg>