<?xml version="1.0" standalone="no"?>
<!DOCTYPE svg PUBLIC "-//W3C//DTD SVG 20010904//EN"
 "http://www.w3.org/TR/2001/REC-SVG-20010904/DTD/svg10.dtd">
<svg version="1.0" xmlns="http://www.w3.org/2000/svg"
 width="305.000000pt" height="288.000000pt" viewBox="0 0 305.000000 288.000000"
 preserveAspectRatio="xMidYMid meet">
<metadata>
Created by potrace 1.16, written by Peter Selinger 2001-2019
</metadata>
<g transform="translate(0.000000,288.000000) scale(0.100000,-0.100000)"
fill="#F0E6D1" stroke="none">
<path d="M2365 2817 c-16 -7 -44 -20 -61 -29 -37 -20 -150 -139 -159 -167 -3
-12 -14 -21 -23 -21 -36 -1 -105 -42 -163 -97 -36 -35 -108 -128 -181 -236
-160 -237 -175 -249 -487 -377 -291 -119 -396 -180 -524 -307 -202 -200 -276
-422 -277 -826 l0 -149 -34 -34 c-40 -40 -83 -45 -133 -14 -51 31 -56 69 -44
309 12 218 26 329 65 494 27 113 46 237 46 299 0 107 -91 169 -180 123 -41
-21 -56 -57 -63 -152 -4 -46 -20 -140 -36 -210 -17 -71 -37 -177 -46 -238 -20
-136 -36 -521 -24 -593 17 -110 81 -199 180 -252 84 -45 184 -52 276 -21 61
21 62 21 105 1 41 -19 68 -20 576 -20 l533 0 24 25 c35 34 33 88 -4 147 -39
61 -131 108 -225 115 l-66 6 74 32 c143 62 212 132 241 244 l11 44 73 -129
c110 -192 214 -354 258 -398 21 -21 61 -49 88 -62 45 -21 64 -24 185 -24 147
0 172 7 191 57 23 62 -56 158 -155 189 l-52 16 -103 271 c-62 161 -99 273 -93
275 6 2 37 20 69 41 67 43 127 108 166 178 79 146 76 358 -7 509 l-34 61 88 6
c116 9 187 36 248 95 51 50 96 132 107 195 6 40 -5 56 -84 115 -19 15 -46 57
-76 120 -25 53 -56 107 -68 120 -27 29 -69 52 -97 52 -19 0 -20 6 -20 115 l0
115 -27 -1 c-16 0 -41 -6 -58 -12z"/>
<path d="M2665 1661 l-50 -17 -6 -105 c-7 -114 -12 -141 -42 -212 -11 -26 -17
-50 -14 -53 9 -10 116 66 175 123 l54 53 101 0 c56 0 107 4 113 8 61 41 18
148 -78 196 -64 32 -174 35 -253 7z"/>
</g>
</svg>
