<?xml version="1.0" encoding="UTF-8"?>
<svg xmlns="http://www.w3.org/2000/svg" xmlns:xlink="http://www.w3.org/1999/xlink" viewBox="0 0 128 128" width="128px" height="128px">
<g id="surface122738243">
<path style=" stroke:none;fill-rule:nonzero;fill:rgb(100%,100%,100%);fill-opacity:1;" d="M 28.644531 28.644531 C 9.117188 48.171875 9.117188 79.832031 28.644531 99.355469 C 48.171875 118.882812 79.828125 118.882812 99.355469 99.355469 C 118.882812 79.828125 118.878906 48.171875 99.355469 28.644531 C 79.828125 9.117188 48.167969 9.117188 28.644531 28.644531 Z M 28.644531 28.644531 "/>
<path style=" stroke:none;fill-rule:nonzero;fill:rgb(50.980395%,63.921571%,36.078432%);fill-opacity:1;" d="M 64 117 C 49.800781 117 36.5 111.5 26.5 101.5 C 5.800781 80.800781 5.800781 47.199219 26.5 26.5 C 36.5 16.5 49.800781 11 64 11 C 78.199219 11 91.5 16.5 101.5 26.5 C 111.5 36.5 117 49.800781 117 64 C 117 78.199219 111.5 91.5 101.5 101.5 C 91.5 111.5 78.199219 117 64 117 Z M 64 17 C 51.398438 17 39.601562 21.898438 30.800781 30.800781 C 12.5 49.101562 12.5 78.898438 30.800781 97.300781 C 39.601562 106.101562 51.398438 111 64 111 C 76.601562 111 88.398438 106.101562 97.199219 97.199219 C 106 88.300781 111 76.601562 111 64 C 111 51.398438 106.101562 39.601562 97.199219 30.800781 C 88.300781 22 76.601562 17 64 17 Z M 64 17 "/>
<path style=" stroke:none;fill-rule:nonzero;fill:rgb(50.980395%,63.921571%,36.078432%);fill-opacity:1;" d="M 53.398438 77.601562 C 52.601562 77.601562 51.898438 77.300781 51.300781 76.699219 C 50.101562 75.5 50.101562 73.601562 51.300781 72.5 L 72.5 51.300781 C 73.699219 50.101562 75.601562 50.101562 76.699219 51.300781 C 77.898438 52.5 77.898438 54.398438 76.699219 55.5 L 55.5 76.699219 C 54.898438 77.300781 54.199219 77.601562 53.398438 77.601562 Z M 53.398438 77.601562 "/>
<path style=" stroke:none;fill-rule:nonzero;fill:rgb(50.980395%,63.921571%,36.078432%);fill-opacity:1;" d="M 74.601562 77.601562 C 73.800781 77.601562 73.101562 77.300781 72.5 76.699219 L 51.300781 55.5 C 50.101562 54.300781 50.101562 52.398438 51.300781 51.300781 C 52.5 50.101562 54.398438 50.101562 55.5 51.300781 L 76.699219 72.5 C 77.898438 73.699219 77.898438 75.601562 76.699219 76.699219 C 76.101562 77.300781 75.398438 77.601562 74.601562 77.601562 Z M 74.601562 77.601562 "/>
</g>
</svg>
