<?xml version="1.0" standalone="no"?>
<!DOCTYPE svg PUBLIC "-//W3C//DTD SVG 20010904//EN"
 "http://www.w3.org/TR/2001/REC-SVG-20010904/DTD/svg10.dtd">
<svg version="1.0" xmlns="http://www.w3.org/2000/svg"
 width="500.000000pt" height="500.000000pt" viewBox="0 0 500.000000 500.000000"
 preserveAspectRatio="xMidYMid meet">

<g transform="translate(0.000000,500.000000) scale(0.100000,-0.100000)"
fill="#000000" stroke="none">
<path d="M3028 4420 c-144 -25 -400 -142 -461 -209 -39 -43 -53 -97 -42 -162
7 -40 50 -100 86 -119 10 -6 99 -19 198 -30 281 -31 414 -63 513 -125 l57 -36
-16 -37 c-40 -98 -144 -305 -180 -358 -90 -133 -178 -215 -283 -267 l-65 -32
-575 -6 c-491 -5 -587 -8 -658 -23 -98 -20 -188 -51 -307 -106 l-85 -39 -133
45 c-72 26 -162 62 -199 81 -134 70 -163 108 -341 450 -148 284 -156 293 -263
293 -47 0 -69 -5 -94 -22 -59 -41 -75 -72 -75 -147 0 -66 3 -73 102 -272 146
-293 194 -370 288 -464 94 -95 166 -144 289 -198 50 -22 95 -43 99 -47 5 -5
-9 -48 -31 -98 -23 -49 -56 -138 -75 -198 -186 -585 -232 -687 -446 -989 -218
-308 -231 -332 -231 -435 0 -72 26 -126 83 -176 55 -49 102 -64 194 -64 117 0
154 35 422 397 l142 191 132 43 c178 57 304 122 453 235 70 52 147 107 173
122 l46 27 220 -1 c215 -1 332 -13 677 -70 33 -6 39 -12 54 -51 10 -25 62
-125 117 -222 129 -230 168 -308 205 -413 40 -113 63 -156 104 -195 110 -106
306 -82 399 49 82 114 6 413 -184 726 -32 51 -57 97 -57 103 0 5 24 44 54 87
126 181 184 350 226 662 37 273 75 372 203 520 141 164 320 295 465 340 35 11
133 26 218 35 179 17 214 30 267 102 41 57 165 284 201 371 27 64 33 130 16
162 -18 34 -91 67 -290 131 l-195 62 -62 67 c-110 117 -214 155 -413 148
l-116 -4 -104 -52 -104 -52 -29 38 c-64 79 -176 180 -233 208 -55 27 -68 29
-184 31 -69 1 -146 -2 -172 -7z"/>
<path d="M3806 2233 c-3 -10 -15 -63 -27 -118 -11 -54 -39 -156 -60 -226 -21
-69 -39 -133 -39 -142 0 -11 17 -19 54 -27 30 -6 60 -19 68 -28 8 -9 44 -71
79 -136 109 -203 161 -243 299 -234 114 8 200 74 235 178 31 93 15 149 -125
432 -73 151 -124 218 -178 239 -44 18 -216 66 -260 74 -34 5 -41 4 -46 -12z"/>
<path d="M1714 1334 c-55 -43 -114 -89 -131 -103 -20 -16 -33 -35 -33 -49 0
-28 93 -314 127 -392 26 -60 72 -113 117 -137 39 -20 161 -28 214 -14 30 8 61
29 97 64 104 101 100 161 -38 597 l-33 105 -111 3 -111 3 -98 -77z"/>
</g>
</svg>
