<?xml version="1.0" standalone="no"?>
<!DOCTYPE svg PUBLIC "-//W3C//DTD SVG 20010904//EN"
 "http://www.w3.org/TR/2001/REC-SVG-20010904/DTD/svg10.dtd">
<svg version="1.0" xmlns="http://www.w3.org/2000/svg"
 width="344.000000pt" height="344.000000pt" viewBox="0 0 344.000000 344.000000"
 preserveAspectRatio="xMidYMid meet">
<metadata>
Created by potrace 1.16, written by Peter Selinger 2001-2019
</metadata>
<g transform="translate(0.000000,344.000000) scale(0.100000,-0.100000)"
fill="#000000" stroke="none">
<path d="M2496 3355 c-21 -7 -55 -29 -75 -48 -26 -25 -48 -36 -80 -40 -68 -8
-130 -53 -164 -117 -25 -47 -28 -64 -25 -117 3 -50 10 -71 36 -108 l31 -44
-36 -53 c-51 -75 -96 -176 -160 -357 -76 -217 -131 -328 -196 -394 -97 -99
-174 -123 -376 -114 -451 20 -844 173 -1087 423 -85 88 -94 94 -131 94 -68 0
-96 -46 -95 -159 2 -133 87 -303 220 -443 41 -42 44 -48 26 -54 -98 -35 -150
-72 -170 -120 -25 -60 4 -110 79 -134 20 -6 37 -14 37 -18 0 -3 -11 -18 -25
-32 -14 -15 -28 -43 -32 -63 -5 -31 -1 -40 24 -64 16 -15 48 -39 70 -51 28
-17 60 -54 112 -133 77 -116 248 -303 355 -388 57 -46 68 -50 161 -66 145 -26
345 -24 458 4 142 34 228 82 328 181 64 64 95 105 127 165 49 97 80 204 89
305 4 56 11 81 26 98 28 30 61 28 87 -5 19 -25 21 -35 15 -98 -47 -472 -388
-790 -855 -796 -75 -1 -82 -3 -65 -15 34 -25 235 -85 342 -102 l103 -17 0 -75
0 -75 -51 -25 c-28 -13 -75 -47 -105 -75 -60 -57 -70 -93 -35 -136 32 -40 82
-32 139 23 70 68 104 83 192 83 87 0 118 -14 192 -83 40 -37 56 -46 85 -46 39
0 73 31 73 66 0 78 -165 197 -296 214 l-54 6 0 62 0 63 96 12 c417 55 764 264
914 553 64 122 90 241 90 408 0 152 -14 251 -62 435 -44 166 -45 294 -5 376
15 32 34 62 42 69 20 17 120 -4 168 -36 49 -32 92 -29 121 9 19 26 19 32 9
116 -14 107 -37 164 -91 223 -22 24 -43 59 -47 78 -9 41 -45 115 -73 150 l-20
24 27 40 c22 34 26 50 26 117 0 70 -3 81 -30 120 -35 49 -82 76 -150 86 -38 5
-55 13 -79 41 -58 66 -145 87 -230 57z m207 -646 c85 -92 -50 -213 -139 -124
-45 45 -25 130 36 154 36 15 71 5 103 -30z"/>
</g>
</svg>
