<?xml version="1.0" standalone="no"?>
<!DOCTYPE svg PUBLIC "-//W3C//DTD SVG 20010904//EN"
 "http://www.w3.org/TR/2001/REC-SVG-20010904/DTD/svg10.dtd">
<svg version="1.0" xmlns="http://www.w3.org/2000/svg"
 width="344.000000pt" height="344.000000pt" viewBox="0 0 344.000000 344.000000"
 preserveAspectRatio="xMidYMid meet">
<metadata>
Created by potrace 1.16, written by Peter Selinger 2001-2019
</metadata>
<g transform="translate(0.000000,344.000000) scale(0.100000,-0.100000)"
fill="#F0E6D1" stroke="none">
<path d="M2505 3230 c-288 -62 -506 -303 -635 -699 l-37 -116 -49 -13 c-27 -7
-92 -15 -144 -19 -86 -5 -116 -2 -285 32 -165 34 -208 39 -330 39 -120 0 -149
-3 -205 -23 -200 -70 -300 -217 -316 -466 -5 -79 -2 -104 24 -205 16 -63 52
-176 79 -250 l49 -135 -12 -115 c-22 -196 -23 -190 71 -580 48 -201 93 -376
100 -390 18 -34 54 -66 88 -79 16 -6 79 -11 140 -11 134 0 157 10 157 68 0 20
-34 192 -76 382 l-77 345 56 75 c31 41 82 120 112 176 l56 102 67 -23 c37 -13
105 -32 152 -42 137 -29 449 -24 624 10 6 1 42 -219 81 -490 68 -465 73 -494
99 -528 42 -55 71 -65 189 -65 147 0 142 -9 133 222 -10 263 -36 834 -44 952
-7 101 -7 101 25 162 71 132 100 266 109 509 2 83 7 169 10 191 l5 42 71 -37
c70 -36 72 -36 198 -37 115 -1 132 -3 185 -27 86 -40 101 -37 172 36 69 69 83
97 83 165 0 63 -13 82 -193 289 -84 96 -154 179 -155 184 -2 5 19 37 46 72 89
112 83 139 -50 202 -153 72 -252 97 -403 101 -71 2 -148 -1 -170 -6z"/>
<path d="M384 2249 c-180 -115 -299 -305 -359 -574 -9 -38 -18 -142 -22 -230
-5 -138 -3 -163 10 -176 8 -9 106 -49 217 -89 184 -66 203 -71 231 -60 49 21
52 36 39 201 -10 125 -17 167 -46 252 -63 187 -78 254 -77 362 1 110 19 203
57 289 29 66 22 70 -50 25z"/>
<path d="M2796 1708 c-3 -7 -12 -38 -22 -68 -9 -30 -30 -81 -45 -112 -25 -50
-29 -69 -29 -142 l0 -85 68 -22 68 -22 -32 -192 c-36 -213 -34 -248 11 -317
26 -40 132 -97 195 -105 69 -10 72 -2 155 347 41 173 75 334 75 356 0 52 -23
118 -55 160 -31 41 -383 223 -389 202z"/>
<path d="M1308 1153 c-12 -21 -46 -72 -74 -114 l-51 -75 65 -290 c35 -159 71
-296 79 -305 18 -21 78 -37 174 -44 87 -7 122 4 139 46 11 25 2 56 -90 311
-57 156 -103 288 -103 293 0 6 23 43 52 84 28 41 51 77 51 80 0 4 -44 15 -97
25 -54 10 -104 20 -110 23 -7 2 -23 -13 -35 -34z"/>
</g>
</svg>
