<?xml version="1.0" standalone="no"?>
<!DOCTYPE svg PUBLIC "-//W3C//DTD SVG 20010904//EN"
 "http://www.w3.org/TR/2001/REC-SVG-20010904/DTD/svg10.dtd">
<svg version="1.0" xmlns="http://www.w3.org/2000/svg"
 width="344.000000pt" height="344.000000pt" viewBox="0 0 344.000000 344.000000"
 preserveAspectRatio="xMidYMid meet">
<metadata>
Created by potrace 1.16, written by Peter Selinger 2001-2019
</metadata>
<g transform="translate(0.000000,344.000000) scale(0.100000,-0.100000)"
fill="#000000" stroke="none">
<path d="M1270 3352 c-44 -21 -74 -79 -65 -122 16 -72 108 -130 403 -257 197
-84 289 -130 371 -186 25 -17 49 -30 55 -30 6 0 42 21 80 46 37 25 90 54 117
63 27 10 49 21 49 25 0 14 -176 157 -273 222 -134 89 -360 200 -471 232 -108
30 -214 34 -266 7z"/>
<path d="M1034 3006 c-52 -23 -74 -61 -74 -126 0 -48 5 -66 33 -106 52 -79
147 -129 405 -214 136 -45 274 -99 371 -145 l154 -73 3 -93 c6 -204 96 -356
282 -479 139 -93 295 -125 567 -117 149 4 197 9 276 30 156 41 247 97 292 181
19 35 22 56 21 151 0 98 -4 119 -31 192 -64 169 -196 349 -335 458 -143 112
-269 156 -453 157 -181 1 -308 -41 -433 -142 -36 -29 -68 -48 -75 -44 -7 4
-70 43 -142 87 -236 146 -463 248 -628 283 -85 17 -192 18 -233 0z m1789 -757
c80 -41 74 -148 -10 -180 -35 -13 -69 -2 -98 33 -31 36 -32 76 -4 112 33 42
73 55 112 35z"/>
<path d="M1171 2150 c-238 -51 -500 -229 -634 -433 -98 -148 -163 -342 -174
-520 -5 -78 -9 -100 -22 -104 -9 -2 -49 -21 -89 -40 -126 -62 -185 -151 -185
-280 0 -61 5 -82 32 -137 17 -36 46 -77 64 -92 67 -56 188 -94 255 -79 28 6
31 11 52 93 12 48 29 95 37 105 21 22 65 22 86 -1 23 -26 21 -54 -14 -204 -47
-195 -35 -249 63 -303 80 -44 168 -51 495 -36 225 9 357 9 608 0 340 -12 605
-8 695 12 35 7 64 21 82 39 25 25 28 36 28 90 0 144 -82 224 -284 275 -50 13
-136 28 -191 34 -55 7 -119 14 -143 17 l-43 5 38 28 c47 34 106 99 130 143 14
26 18 55 18 133 0 125 -22 180 -101 255 -90 85 -206 126 -383 137 -82 5 -108
10 -123 25 -24 24 -23 63 3 89 20 20 28 21 118 15 315 -21 525 -152 597 -373
25 -76 25 -219 0 -283 -31 -82 -33 -76 30 -84 81 -9 225 -59 288 -100 51 -33
110 -96 136 -146 39 -74 50 -189 25 -260 -8 -23 -15 -44 -15 -46 0 -8 369 -3
437 6 134 17 168 54 152 168 -20 144 -99 210 -299 252 -58 13 -106 23 -107 24
-1 1 -29 105 -63 231 -81 308 -80 322 15 486 46 78 85 176 85 213 0 21 -4 21
-188 21 -279 1 -395 28 -541 125 -49 33 -117 90 -151 127 -72 79 -144 216
-163 313 l-13 65 -45 -4 c-52 -6 -32 -6 -324 2 -133 4 -249 2 -274 -3z"/>
</g>
</svg>
