<svg width="500" height="500" viewBox="0 0 500 500" fill="none" xmlns="http://www.w3.org/2000/svg">
<path d="M198.483 58.0202C193.396 60.5227 189.927 67.4342 190.968 72.5583C192.818 81.1382 203.454 88.0498 237.561 103.184C260.337 113.194 270.974 118.675 280.455 125.348C283.345 127.374 286.12 128.923 286.813 128.923C287.507 128.923 291.669 126.421 296.063 123.442C300.34 120.463 306.468 117.007 309.59 115.934C312.711 114.743 315.255 113.432 315.255 112.955C315.255 111.287 294.907 94.2463 283.692 86.5006C268.199 75.8949 242.07 62.6676 229.237 58.8544C216.75 55.2794 204.495 54.8027 198.483 58.0202Z" fill="white"/>
<path d="M171.198 99.2508C165.186 101.992 162.643 106.52 162.643 114.266C162.643 119.986 163.221 122.13 166.458 126.897C172.47 136.311 183.453 142.269 213.282 152.398C229.006 157.761 244.961 164.196 256.176 169.677L273.981 178.376L274.327 189.459C275.021 213.768 285.426 231.881 306.931 246.539C323.002 257.621 341.038 261.434 372.485 260.481C389.712 260.004 395.261 259.409 404.395 256.906C422.431 252.02 432.952 245.347 438.155 235.337C440.351 231.166 440.698 228.664 440.583 217.343C440.583 205.665 440.12 203.163 436.999 194.464C429.599 174.325 414.338 152.875 398.267 139.886C381.734 126.54 367.167 121.296 345.893 121.177C324.967 121.058 310.284 126.063 295.832 138.099C291.67 141.554 287.97 143.819 287.161 143.342C286.351 142.865 279.068 138.218 270.743 132.975C243.458 115.576 217.213 103.422 198.137 99.2508C188.309 97.225 175.938 97.1059 171.198 99.2508ZM378.035 189.459C387.284 194.344 386.59 207.095 376.878 210.908C372.832 212.458 368.901 211.147 365.548 206.976C361.964 202.686 361.848 197.919 365.086 193.629C368.901 188.625 373.526 187.075 378.035 189.459Z" fill="white"/>
<path d="M187.037 201.256C159.521 207.334 129.229 228.545 113.737 252.855C102.406 270.491 94.8915 293.609 93.6197 314.821C93.0416 324.116 92.5792 326.737 91.0762 327.214C90.0356 327.452 85.411 329.716 80.7864 331.98C66.2188 339.369 59.3975 349.974 59.3975 365.347C59.3975 372.616 59.9755 375.118 63.0972 381.672C65.0626 385.962 68.4155 390.848 70.4966 392.635C78.2428 399.309 92.2323 403.837 99.9786 402.049C103.216 401.334 103.563 400.739 105.991 390.967C107.378 385.247 109.343 379.646 110.268 378.455C112.696 375.833 117.783 375.833 120.211 378.574C122.87 381.672 122.639 385.009 118.593 402.884C113.159 426.121 114.546 432.556 125.876 438.991C135.126 444.234 145.3 445.068 183.106 443.28C209.12 442.208 224.381 442.208 253.401 443.28C292.71 444.71 323.348 444.234 333.754 441.851C337.8 441.016 341.153 439.348 343.234 437.203C346.124 434.224 346.471 432.913 346.471 426.478C346.471 409.318 336.991 399.785 313.636 393.708C307.856 392.159 297.913 390.371 291.554 389.656C285.195 388.822 277.796 387.988 275.021 387.63L270.049 387.035L274.443 383.698C279.877 379.646 286.698 371.901 289.473 366.657C291.091 363.559 291.554 360.103 291.554 350.808C291.554 335.913 289.01 329.359 279.877 320.421C269.471 310.292 256.06 305.407 235.596 304.096C226.115 303.5 223.109 302.904 221.375 301.117C218.6 298.257 218.716 293.609 221.722 290.511C224.034 288.128 224.959 288.009 235.365 288.724C271.783 291.226 296.063 306.837 304.387 333.172C307.278 342.229 307.278 359.269 304.387 366.896C300.803 376.667 300.572 375.952 307.856 376.906C317.22 377.978 333.869 383.936 341.153 388.822C347.049 392.755 353.871 400.262 356.877 406.22C361.386 415.038 362.657 428.742 359.767 437.203C358.842 439.944 358.033 442.446 358.033 442.685C358.033 443.638 400.695 443.042 408.557 441.97C424.049 439.944 427.98 435.535 426.13 421.95C423.818 404.79 414.684 396.925 391.561 391.92C384.856 390.371 379.306 389.18 379.19 389.06C379.075 388.941 375.838 376.548 371.907 361.533C362.542 324.831 362.657 323.162 373.641 303.619C378.959 294.324 383.468 282.646 383.468 278.237C383.468 275.735 383.006 275.735 361.733 275.735C329.476 275.615 316.064 272.398 299.184 260.839C293.519 256.906 285.657 250.114 281.726 245.705C273.402 236.291 265.078 219.965 262.881 208.406L261.378 200.661L256.175 201.137C250.163 201.852 252.476 201.852 218.716 200.899C203.339 200.422 189.928 200.661 187.037 201.256Z" fill="white"/>
</svg>
