<?xml version="1.0" standalone="no"?>
<!DOCTYPE svg PUBLIC "-//W3C//DTD SVG 20010904//EN"
 "http://www.w3.org/TR/2001/REC-SVG-20010904/DTD/svg10.dtd">
<svg version="1.0" xmlns="http://www.w3.org/2000/svg"
 width="200.000000pt" height="200.000000pt" viewBox="0 0 200.000000 200.000000"
 preserveAspectRatio="xMidYMid meet">

<g transform="translate(0.000000,200.000000) scale(0.100000,-0.100000)"
fill="#000000" stroke="none">
<path d="M711 1580 c-105 -28 -195 -82 -276 -164 -150 -151 -208 -365 -155
-570 29 -116 73 -190 165 -281 123 -123 248 -175 420 -176 149 -2 299 52 394
140 46 43 51 66 20 105 -29 37 -65 34 -129 -14 -141 -105 -329 -123 -486 -45
-235 115 -328 385 -216 625 34 73 140 179 213 213 168 79 358 58 500 -54 36
-28 81 -37 105 -21 26 17 36 53 24 83 -17 39 -128 113 -220 146 -103 36 -253
42 -359 13z"/>
<path d="M1410 1260 c-37 -37 -27 -78 37 -142 l57 -58 -332 0 c-319 0 -333 -1
-352 -20 -29 -29 -26 -74 6 -99 26 -20 38 -21 347 -21 l320 0 -52 -54 c-41
-45 -51 -61 -51 -90 0 -25 6 -39 22 -50 48 -34 67 -23 201 112 103 105 127
134 127 157 0 24 -23 53 -128 157 -137 137 -160 150 -202 108z"/>
</g>
</svg>
