<?xml version="1.0" standalone="no"?>
<!DOCTYPE svg PUBLIC "-//W3C//DTD SVG 20010904//EN"
 "http://www.w3.org/TR/2001/REC-SVG-20010904/DTD/svg10.dtd">
<svg version="1.0" xmlns="http://www.w3.org/2000/svg"
 width="426.000000pt" height="371.000000pt" viewBox="0 0 410.000000 350.000000"
 preserveAspectRatio="xMidYMid meet">
<metadata>
Created by potrace 1.16, written by Peter Selinger 2001-2019
</metadata>
<g transform="translate(0.000000,371.000000) scale(0.100000,-0.100000)"
fill="#000000" stroke="none">
<path d="M743 2741 c-28 -9 -70 -29 -92 -44 -93 -62 -174 -218 -194 -378 -9
-75 -9 -90 5 -111 9 -14 106 -90 215 -168 280 -202 474 -353 523 -406 104
-113 129 -240 91 -465 -33 -198 -28 -244 32 -307 51 -53 84 -62 227 -62 114 0
131 2 171 23 24 13 58 43 74 66 l30 43 0 169 c0 93 2 169 6 169 3 0 32 -9 65
-21 175 -60 367 -96 569 -105 72 -3 135 -7 142 -9 9 -3 9 -15 -2 -52 -37 -121
4 -225 107 -268 50 -20 251 -21 299 -1 42 18 94 71 109 111 7 17 12 76 11 137
l-2 106 38 12 c73 23 438 203 461 227 43 46 19 114 -55 151 -33 18 -39 18
-174 -5 -335 -54 -699 -76 -904 -54 -346 38 -672 145 -994 328 -147 84 -257
157 -265 178 -17 47 14 172 75 306 l41 86 -23 54 c-56 133 -120 202 -234 255
-124 56 -253 70 -352 35z m268 -320 c48 -48 38 -116 -22 -147 -62 -32 -129 13
-129 86 0 30 6 44 31 64 41 35 83 34 120 -3z"/>
<path d="M2256 2679 c-3 -8 -14 -63 -26 -124 -11 -60 -23 -120 -25 -132 -4
-19 13 -33 125 -102 l131 -81 142 25 c78 15 143 27 144 29 8 7 51 261 46 269
-10 16 -144 74 -224 97 -95 28 -306 40 -313 19z"/>
<path d="M1975 2646 c-247 -81 -441 -264 -526 -497 -12 -33 -20 -61 -18 -62
51 -37 228 -137 242 -137 7 1 84 99 172 218 l159 217 28 130 c30 142 32 155
21 155 -5 -1 -39 -11 -78 -24z"/>
<path d="M2947 2332 c-9 -49 -17 -97 -17 -107 0 -16 157 -515 165 -523 4 -4
239 29 244 34 17 17 -106 320 -182 448 -53 88 -161 226 -183 233 -6 2 -17 -34
-27 -85z"/>
<path d="M2009 2077 c-62 -84 -123 -166 -136 -184 l-25 -32 39 -16 c126 -53
398 -133 410 -121 5 5 43 312 43 351 0 16 -27 37 -109 87 l-110 67 -112 -152z"/>
<path d="M2626 2081 c-71 -13 -90 -20 -96 -36 -12 -32 -43 -345 -35 -353 9 -9
405 -16 405 -6 0 3 -30 98 -66 210 -77 234 -54 214 -208 185z"/>
</g>
</svg>
