<svg width="500" height="500" viewBox="0 0 500 500" fill="none" xmlns="http://www.w3.org/2000/svg">
<path d="M445.192 105.477C449.373 106.83 455.646 109.837 458.931 112.093C472.82 121.415 484.916 144.87 487.903 168.927C489.247 180.203 489.247 182.459 487.156 185.616C485.812 187.721 471.326 199.148 455.048 210.876C413.233 241.247 384.261 263.951 376.944 271.92C361.412 288.91 357.679 308.005 363.354 341.835C368.282 371.605 367.535 378.521 358.575 387.994C350.958 395.962 346.03 397.316 324.675 397.316C307.65 397.316 305.111 397.015 299.138 393.857C295.553 391.903 290.476 387.392 288.086 383.934L283.606 377.469V352.059C283.606 338.076 283.308 326.649 282.71 326.649C282.262 326.649 277.931 328.002 273.003 329.806C246.869 338.828 218.195 344.24 188.029 345.594C177.276 346.045 167.868 346.646 166.823 346.947C165.478 347.398 165.478 349.202 167.121 354.765C172.647 372.958 166.524 388.595 151.142 395.06C143.675 398.067 113.658 398.218 106.489 395.211C100.217 392.504 92.4513 384.535 90.2112 378.521C89.1659 375.965 88.4192 367.094 88.5685 357.923L88.8672 341.985L83.1923 340.181C72.2905 336.723 17.7815 309.659 14.3467 306.05C7.92504 299.134 11.5092 288.91 22.5603 283.347C27.4885 280.64 28.3846 280.64 48.5455 284.098C98.5743 292.218 152.934 295.525 183.549 292.218C235.22 286.504 283.905 270.416 331.992 242.901C353.945 230.272 370.373 219.296 371.567 216.138C374.106 209.072 369.477 190.277 360.367 170.13L354.244 157.199L357.679 149.08C366.042 129.083 375.599 118.708 392.624 110.74C411.142 102.32 430.407 100.215 445.192 105.477ZM405.169 153.591C398 160.808 399.494 171.032 408.454 175.693C417.713 180.504 427.719 173.738 427.719 162.762C427.719 158.252 426.823 156.147 423.09 153.14C416.967 147.877 410.694 148.028 405.169 153.591Z" fill="black"/>
<path d="M219.24 114.799C219.688 116.002 221.33 124.271 223.122 133.443C224.765 142.464 226.557 151.486 226.856 153.29C227.453 156.147 224.915 158.251 208.189 168.626L188.625 180.805L167.419 177.046C155.77 174.791 146.063 172.986 145.914 172.686C144.719 171.633 138.298 133.443 139.044 132.24C140.538 129.834 160.549 121.114 172.496 117.656C186.684 113.446 218.194 111.642 219.24 114.799Z" fill="black"/>
<path d="M261.206 119.761C298.093 131.94 327.064 159.455 339.758 194.487C341.55 199.449 342.745 203.659 342.446 203.809C334.83 209.372 308.397 224.408 306.306 224.408C305.261 224.257 293.762 209.523 280.62 191.63L256.875 159.003L252.693 139.457C248.213 118.107 247.914 116.152 249.557 116.152C250.304 116.303 255.381 117.806 261.206 119.761Z" fill="black"/>
<path d="M116.046 166.972C117.39 174.34 118.585 181.557 118.585 183.06C118.585 185.466 95.1386 260.493 93.9439 261.696C93.3465 262.297 58.2517 257.335 57.505 256.584C54.9662 254.028 73.335 208.47 84.6848 189.225C92.5998 175.994 108.729 155.245 112.014 154.192C112.91 153.891 114.553 159.304 116.046 166.972Z" fill="black"/>
<path d="M256.127 205.313C265.386 217.943 274.496 230.272 276.437 232.978L280.171 237.789L274.347 240.195C255.53 248.164 214.909 260.192 213.117 258.388C212.371 257.636 206.696 211.477 206.696 205.614C206.696 203.208 210.728 200.05 222.974 192.533L239.401 182.459L256.127 205.313Z" fill="black"/>
<path d="M163.985 204.711C174.588 206.666 177.426 207.718 178.322 210.124C180.114 214.935 184.743 261.996 183.549 263.199C182.205 264.552 123.066 265.605 123.066 264.101C123.066 263.65 127.546 249.367 132.923 232.527C144.422 197.344 140.987 200.351 163.985 204.711Z" fill="black"/>
</svg>
