<?xml version="1.0" standalone="no"?>
<!DOCTYPE svg PUBLIC "-//W3C//DTD SVG 20010904//EN"
 "http://www.w3.org/TR/2001/REC-SVG-20010904/DTD/svg10.dtd">
<svg version="1.0" xmlns="http://www.w3.org/2000/svg"
 width="344.000000pt" height="344.000000pt" viewBox="0 0 344.000000 344.000000"
 preserveAspectRatio="xMidYMid meet">
<metadata>
Created by potrace 1.16, written by Peter Selinger 2001-2019
</metadata>
<g transform="translate(0.000000,344.000000) scale(0.100000,-0.100000)"
fill="#000000" stroke="none">
<path d="M2431 2794 c-27 -98 -6 -180 86 -334 76 -127 82 -160 39 -197 -58
-49 -91 -24 -191 147 -144 243 -163 251 -522 209 -353 -40 -616 -40 -983 1
-255 29 -340 25 -406 -15 -30 -19 -60 -49 -79 -79 l-30 -49 -3 -318 -3 -318
-28 -6 c-108 -24 -114 -192 -10 -310 17 -19 37 -35 44 -35 16 0 68 58 92 103
16 27 19 68 23 292 l5 260 26 -70 c54 -144 73 -241 73 -370 -1 -138 -16 -215
-72 -349 l-37 -91 0 -313 0 -314 37 -34 c36 -33 41 -34 116 -34 l79 0 11 148
c6 81 19 186 28 232 14 78 61 240 68 240 2 0 23 -9 47 -19 98 -43 209 -35 293
21 49 32 100 97 112 142 3 14 10 29 15 32 5 3 47 -9 92 -26 162 -62 263 -80
450 -80 183 0 222 -8 252 -53 10 -15 34 -130 61 -292 25 -147 49 -276 54 -285
25 -47 59 -60 151 -60 l89 0 0 29 c0 16 -9 167 -20 336 -24 367 -30 345 98
416 129 72 135 80 193 264 59 186 99 276 136 304 23 19 39 21 185 21 185 0
208 7 257 75 39 55 71 128 71 165 0 32 -75 151 -142 225 -25 28 -66 84 -91
125 -25 41 -60 89 -77 105 -29 28 -36 30 -93 27 -34 -1 -100 -11 -147 -21 -47
-10 -88 -17 -92 -15 -3 2 -10 19 -13 37 -21 96 -84 154 -178 164 l-55 6 -11
-39z"/>
<path d="M1720 879 c0 -229 3 -242 58 -284 20 -14 47 -21 100 -23 39 -3 72 0
72 4 1 5 7 50 14 101 12 87 11 102 -13 250 l-27 158 -102 3 -102 3 0 -212z"/>
<path d="M1105 1003 c-22 -8 -79 -17 -127 -20 -84 -6 -88 -7 -88 -29 0 -45 59
-304 75 -328 27 -41 74 -56 170 -56 l88 0 -7 33 c-20 94 -45 262 -52 335 -3
45 -9 82 -13 81 -3 0 -24 -7 -46 -16z"/>
</g>
</svg>
